<?xml version="1.0" encoding="UTF-8" standalone="no"?>
<!-- Created with Inkscape (http://www.inkscape.org/) -->

<svg
   xmlns:dc="http://purl.org/dc/elements/1.1/"
   xmlns:cc="http://creativecommons.org/ns#"
   xmlns:rdf="http://www.w3.org/1999/02/22-rdf-syntax-ns#"
   xmlns:svg="http://www.w3.org/2000/svg"
   xmlns="http://www.w3.org/2000/svg"
   xmlns:xlink="http://www.w3.org/1999/xlink"
   xmlns:sodipodi="http://sodipodi.sourceforge.net/DTD/sodipodi-0.dtd"
   xmlns:inkscape="http://www.inkscape.org/namespaces/inkscape"
   version="1.0"
   width="64"
   height="64"
   id="svg2696"
   inkscape:version="0.47 r22583"
   sodipodi:docname="folder-Tirian.svg">
  <metadata
     id="metadata3490">
    <rdf:RDF>
      <cc:Work
         rdf:about="">
        <dc:format>image/svg+xml</dc:format>
        <dc:type
           rdf:resource="http://purl.org/dc/dcmitype/StillImage" />
        <dc:title />
      </cc:Work>
    </rdf:RDF>
  </metadata>
  <sodipodi:namedview
     pagecolor="#ffffff"
     bordercolor="#666666"
     borderopacity="1"
     objecttolerance="10"
     gridtolerance="10"
     guidetolerance="10"
     inkscape:pageopacity="0"
     inkscape:pageshadow="2"
     inkscape:window-width="1280"
     inkscape:window-height="725"
     id="namedview3488"
     showgrid="false"
     inkscape:zoom="5.2370096"
     inkscape:cx="-14.654131"
     inkscape:cy="26.668934"
     inkscape:window-x="0"
     inkscape:window-y="24"
     inkscape:window-maximized="1"
     inkscape:current-layer="svg2696" />
  <defs
     id="defs2698">
    <linearGradient
       inkscape:collect="always"
       id="linearGradient3936">
      <stop
         style="stop-color:#000000;stop-opacity:1;"
         offset="0"
         id="stop3938" />
      <stop
         style="stop-color:#000000;stop-opacity:0;"
         offset="1"
         id="stop3940" />
    </linearGradient>
    <inkscape:perspective
       sodipodi:type="inkscape:persp3d"
       inkscape:vp_x="0 : 32 : 1"
       inkscape:vp_y="0 : 1000 : 0"
       inkscape:vp_z="64 : 32 : 1"
       inkscape:persp3d-origin="32 : 21.333333 : 1"
       id="perspective3492" />
    <linearGradient
       id="linearGradient3484">
      <stop
         id="stop3486"
         style="stop-color:#bdbdbd;stop-opacity:1"
         offset="0" />
      <stop
         id="stop3488"
         style="stop-color:#d0d0d0;stop-opacity:1"
         offset="1" />
    </linearGradient>
    <radialGradient
       cx="3"
       cy="5.01718"
       r="21"
       fx="3"
       fy="5.01718"
       id="radialGradient2788"
       xlink:href="#linearGradient3484"
       gradientUnits="userSpaceOnUse"
       gradientTransform="matrix(-1.274898e-8,1.7142916,-2.159331,-1.4599595e-8,12.809361,3.6088808)" />
    <linearGradient
       id="linearGradient6404">
      <stop
         id="stop6406"
         style="stop-color:#f9f9f9;stop-opacity:1"
         offset="0" />
      <stop
         id="stop6408"
         style="stop-color:#c9c9c9;stop-opacity:1"
         offset="1" />
    </linearGradient>
    <linearGradient
       x1="62.988873"
       y1="13.182598"
       x2="62.988873"
       y2="16.19013"
       id="linearGradient2786"
       xlink:href="#linearGradient6404"
       gradientUnits="userSpaceOnUse"
       gradientTransform="translate(-50.940898,0.75187968)" />
    <linearGradient
       id="linearGradient5060-820">
      <stop
         id="stop2681"
         style="stop-color:black;stop-opacity:1"
         offset="0" />
      <stop
         id="stop2683"
         style="stop-color:black;stop-opacity:0"
         offset="1" />
    </linearGradient>
    <radialGradient
       cx="605.71429"
       cy="486.64789"
       r="117.14286"
       fx="605.71429"
       fy="486.64789"
       id="radialGradient7600-312"
       xlink:href="#linearGradient5060-820"
       gradientUnits="userSpaceOnUse"
       gradientTransform="matrix(-0.03212956,0,0,0.03705882,23.363215,25.412461)" />
    <linearGradient
       id="linearGradient5060-179">
      <stop
         id="stop2675"
         style="stop-color:black;stop-opacity:1"
         offset="0" />
      <stop
         id="stop2677"
         style="stop-color:black;stop-opacity:0"
         offset="1" />
    </linearGradient>
    <radialGradient
       cx="605.71429"
       cy="486.64789"
       r="117.14286"
       fx="605.71429"
       fy="486.64789"
       id="radialGradient7598-526"
       xlink:href="#linearGradient5060-179"
       gradientUnits="userSpaceOnUse"
       gradientTransform="matrix(0.03212956,0,0,0.03705882,25.337002,25.412461)" />
    <linearGradient
       id="linearGradient5048-585">
      <stop
         id="stop2667"
         style="stop-color:black;stop-opacity:0"
         offset="0" />
      <stop
         id="stop2669"
         style="stop-color:black;stop-opacity:1"
         offset="0.5" />
      <stop
         id="stop2671"
         style="stop-color:black;stop-opacity:0"
         offset="1" />
    </linearGradient>
    <linearGradient
       x1="302.85715"
       y1="366.64789"
       x2="302.85715"
       y2="609.50507"
       id="linearGradient7596-975"
       xlink:href="#linearGradient5048-585"
       gradientUnits="userSpaceOnUse"
       gradientTransform="matrix(0.08429052,0,0,0.03705882,-6.1148626,25.412461)" />
    <linearGradient
       id="linearGradient3390-178-986-453">
      <stop
         id="stop3624"
         style="stop-color:#bb5e12;stop-opacity:1"
         offset="0" />
      <stop
         id="stop3626"
         style="stop-color:#cd8033;stop-opacity:1"
         offset="1" />
    </linearGradient>
    <linearGradient
       x1="82.453476"
       y1="45.114193"
       x2="65.340263"
       y2="15.943953"
       id="linearGradient2779"
       xlink:href="#linearGradient3390-178-986-453"
       gradientUnits="userSpaceOnUse"
       gradientTransform="matrix(1.0000217,0,0,0.99733743,-53.767083,0.68178533)" />
    <linearGradient
       id="linearGradient7012-661-145-733-759-865-745-661-970-94">
      <stop
         id="stop3618"
         style="stop-color:#edd563;stop-opacity:1"
         offset="0" />
      <stop
         id="stop3620"
         style="stop-color:#e08223;stop-opacity:1"
         offset="1" />
    </linearGradient>
    <radialGradient
       cx="63.969177"
       cy="14.113381"
       r="23.097054"
       fx="63.969177"
       fy="14.113381"
       id="radialGradient2777"
       xlink:href="#linearGradient7012-661-145-733-759-865-745-661-970-94"
       gradientUnits="userSpaceOnUse"
       gradientTransform="matrix(1.5647265,-9.4889677e-8,6.1773627e-8,1.0131831,-86.214967,8.9201019)" />
    <linearGradient
       id="linearGradient6129-963-697-142-998-580-273">
      <stop
         id="stop2661"
         style="stop-color:#0a0a0a;stop-opacity:0.498"
         offset="0" />
      <stop
         id="stop2663"
         style="stop-color:#0a0a0a;stop-opacity:0"
         offset="1" />
    </linearGradient>
    <linearGradient
       x1="22.934725"
       y1="49.629246"
       x2="22.809399"
       y2="36.657963"
       id="linearGradient2774"
       xlink:href="#linearGradient6129-963-697-142-998-580-273"
       gradientUnits="userSpaceOnUse"
       gradientTransform="matrix(1.1446925,0,0,0.9977536,-3.4661413,1.8507222)" />
    <linearGradient
       id="linearGradient6087-437-184-795-110-662-495">
      <stop
         id="stop2693"
         style="stop-color:white;stop-opacity:0.40000001"
         offset="0" />
      <stop
         id="stop2695"
         style="stop-color:white;stop-opacity:0"
         offset="1" />
    </linearGradient>
    <radialGradient
       cx="7.2646537"
       cy="8.3021259"
       r="20.979567"
       fx="7.2646537"
       fy="8.3021259"
       id="radialGradient2771"
       xlink:href="#linearGradient6087-437-184-795-110-662-495"
       gradientUnits="userSpaceOnUse"
       gradientTransform="matrix(0,1.2079744,-1.6271642,0,26.148285,8.8683023)" />
    <linearGradient
       id="linearGradient8265-821-176-38-919-66-249">
      <stop
         id="stop2687"
         style="stop-color:white;stop-opacity:0.27450982"
         offset="0" />
      <stop
         id="stop2689"
         style="stop-color:white;stop-opacity:0.07843138"
         offset="1" />
    </linearGradient>
    <linearGradient
       x1="11.566265"
       y1="22.292103"
       x2="15.214532"
       y2="33.95525"
       id="linearGradient2768"
       xlink:href="#linearGradient8265-821-176-38-919-66-249"
       gradientUnits="userSpaceOnUse"
       gradientTransform="translate(0,0.90227125)" />
    <linearGradient
       x1="32.892288"
       y1="8.0590115"
       x2="36.358372"
       y2="5.4565363"
       id="linearGradient3788-2"
       xlink:href="#linearGradient8589-0-2"
       gradientUnits="userSpaceOnUse"
       gradientTransform="matrix(0.85515574,0,0,0.84946412,22.069315,22.331603)" />
    <linearGradient
       id="linearGradient8589-0-2">
      <stop
         id="stop8591-8-6"
         style="stop-color:#fefefe;stop-opacity:1"
         offset="0" />
      <stop
         id="stop8593-04-9"
         style="stop-color:#cbcbcb;stop-opacity:1"
         offset="1" />
    </linearGradient>
    <linearGradient
       id="linearGradient4338">
      <stop
         id="stop4340"
         style="stop-color:#8e8e8e;stop-opacity:1"
         offset="0" />
      <stop
         id="stop4342"
         style="stop-color:#b5b5b5;stop-opacity:1"
         offset="1" />
    </linearGradient>
    <linearGradient
       x1="22.104254"
       y1="43.199211"
       x2="22.104254"
       y2="11.817068"
       id="linearGradient3769"
       xlink:href="#linearGradient4338"
       gradientUnits="userSpaceOnUse"
       gradientTransform="matrix(1.0195997,0,0,1.8439443,43.766814,-28.570097)" />
    <linearGradient
       x1="-22.539846"
       y1="11.109024"
       x2="-22.539846"
       y2="46.263954"
       id="linearGradient3518-609"
       xlink:href="#linearGradient3522-803"
       gradientUnits="userSpaceOnUse"
       gradientTransform="matrix(0.68508518,0,0,0.81922317,56.948193,21.960509)" />
    <linearGradient
       id="linearGradient3522-803">
      <stop
         id="stop5703"
         style="stop-color:#bb9f93;stop-opacity:1"
         offset="0" />
      <stop
         id="stop5705"
         style="stop-color:#996751;stop-opacity:1"
         offset="1" />
    </linearGradient>
    <linearGradient
       x1="9.4919996"
       y1="46.314064"
       x2="9.4919996"
       y2="1.7164899"
       id="linearGradient3520-237"
       xlink:href="#linearGradient6691-281"
       gradientUnits="userSpaceOnUse"
       gradientTransform="matrix(0.78080674,0,0,0.7974676,22.447993,22.460691)" />
    <linearGradient
       id="linearGradient6691-281">
      <stop
         id="stop5709"
         style="stop-color:#835b49;stop-opacity:1"
         offset="0" />
      <stop
         id="stop5711"
         style="stop-color:#a88778;stop-opacity:1"
         offset="1" />
    </linearGradient>
    <linearGradient
       id="linearGradient3600-4">
      <stop
         id="stop3602-0"
         style="stop-color:#f4f4f4;stop-opacity:1"
         offset="0" />
      <stop
         id="stop3604-3"
         style="stop-color:#dbdbdb;stop-opacity:1"
         offset="1" />
    </linearGradient>
    <linearGradient
       id="linearGradient3104-5">
      <stop
         id="stop3106-8"
         style="stop-color:#9a9a9a;stop-opacity:1"
         offset="0" />
      <stop
         id="stop3108-5"
         style="stop-color:#afafaf;stop-opacity:1"
         offset="1" />
    </linearGradient>
    <linearGradient
       x1="25.132275"
       y1="6.7287393"
       x2="25.132275"
       y2="47.013336"
       id="linearGradient4031"
       xlink:href="#linearGradient3600-4"
       gradientUnits="userSpaceOnUse"
       gradientTransform="matrix(0.85712841,0,0,0.79821487,21.928915,22.442761)" />
    <linearGradient
       x1="-51.786404"
       y1="50.786446"
       x2="-51.786404"
       y2="2.9062471"
       id="linearGradient4033"
       xlink:href="#linearGradient3104-5"
       gradientUnits="userSpaceOnUse"
       gradientTransform="matrix(0.6921285,0,0,0.74701034,72.851118,21.553166)" />
    <radialGradient
       gradientTransform="matrix(0.72407974,-0.17954082,0.13508217,0.51579536,6.0304968,17.13073)"
       gradientUnits="userSpaceOnUse"
       xlink:href="#linearGradient4222"
       id="radialGradient6348"
       fy="18.124788"
       fx="36.25843"
       r="7.5534997"
       cy="18.124788"
       cx="36.25843" />
    <radialGradient
       gradientTransform="matrix(0.43574339,-0.08810095,0.12612856,0.6144526,16.921358,11.828851)"
       gradientUnits="userSpaceOnUse"
       xlink:href="#linearGradient4222"
       id="radialGradient6346"
       fy="32.748814"
       fx="0.83576894"
       r="13.124541"
       cy="32.748814"
       cx="0.83576894" />
    <filter
       id="filter6722"
       color-interpolation-filters="sRGB"
       height="1.97"
       width="1.1369412"
       y="-0.48500001"
       x="-0.06847059">
      <feGaussianBlur
         collect="always"
         stdDeviation="0.60625"
         id="feGaussianBlur6724" />
    </filter>
    <radialGradient
       gradientTransform="matrix(1.5823527,-0.1070592,0.01707452,0.2523643,-13.148192,37.916903)"
       gradientUnits="userSpaceOnUse"
       xlink:href="#linearGradient6672"
       id="radialGradient6680"
       fy="51.218025"
       fx="15.458734"
       r="10.625"
       cy="51.218025"
       cx="15.458734" />
    <linearGradient
       gradientTransform="matrix(0.9996532,0,0,1.0200807,-1.2701235,1.0319849)"
       gradientUnits="userSpaceOnUse"
       xlink:href="#linearGradient9942"
       id="linearGradient9940"
       y2="18.074093"
       x2="23.385582"
       y1="48.039482"
       x1="13.340408" />
    <linearGradient
       gradientTransform="matrix(0.9996532,0,0,1.0200807,-1.2701235,1.0319849)"
       gradientUnits="userSpaceOnUse"
       xlink:href="#linearGradient9920"
       id="linearGradient9914"
       y2="16.166088"
       x2="22.516863"
       y1="47.685928"
       x1="10.865535" />
    <linearGradient
       gradientTransform="matrix(0.9480828,0,0,0.9426665,0.96263487,2.8188689)"
       gradientUnits="userSpaceOnUse"
       xlink:href="#linearGradient9827"
       id="linearGradient9833"
       y2="17.6875"
       x2="43.968441"
       y1="13"
       x1="39.889763" />
    <linearGradient
       gradientTransform="translate(-1.2779322,2.0302001)"
       gradientUnits="userSpaceOnUse"
       xlink:href="#linearGradient2264"
       id="linearGradient9821"
       y2="17.125"
       x2="44.5625"
       y1="12.625"
       x1="40.125" />
    <linearGradient
       id="linearGradient4222">
      <stop
         offset="0"
         style="stop-color:white;stop-opacity:1"
         id="stop4224" />
      <stop
         offset="1"
         style="stop-color:white;stop-opacity:0"
         id="stop4226" />
    </linearGradient>
    <linearGradient
       id="linearGradient2264">
      <stop
         offset="0"
         style="stop-color:#d7e866;stop-opacity:1"
         id="stop2266" />
      <stop
         offset="1"
         style="stop-color:#8cab2a;stop-opacity:1"
         id="stop2268" />
    </linearGradient>
    <linearGradient
       id="linearGradient9827">
      <stop
         offset="0"
         style="stop-color:black;stop-opacity:0"
         id="stop9829" />
      <stop
         offset="0.58448297"
         style="stop-color:black;stop-opacity:0.26495728"
         id="stop9835" />
      <stop
         offset="1"
         style="stop-color:black;stop-opacity:0"
         id="stop9831" />
    </linearGradient>
    <linearGradient
       id="linearGradient9920">
      <stop
         offset="0"
         style="stop-color:#f0f0f0;stop-opacity:1"
         id="stop9922" />
      <stop
         offset="0.51944989"
         style="stop-color:#c8c8c8;stop-opacity:1"
         id="stop9924" />
      <stop
         offset="0.68466324"
         style="stop-color:#a0a0a0;stop-opacity:1"
         id="stop9926" />
      <stop
         offset="0.7648505"
         style="stop-color:#a0a0a0;stop-opacity:1"
         id="stop9928" />
      <stop
         offset="0.91404903"
         style="stop-color:#c8c8c8;stop-opacity:1"
         id="stop9930" />
      <stop
         offset="1"
         style="stop-color:#dcdcdc;stop-opacity:1"
         id="stop9932" />
    </linearGradient>
    <linearGradient
       id="linearGradient9942">
      <stop
         offset="0"
         style="stop-color:#a0a0a0;stop-opacity:1"
         id="stop9944" />
      <stop
         offset="0.51944989"
         style="stop-color:#828282;stop-opacity:1"
         id="stop9946" />
      <stop
         offset="0.68466324"
         style="stop-color:#5a5a5a;stop-opacity:1"
         id="stop9948" />
      <stop
         offset="0.7648505"
         style="stop-color:#5a5a5a;stop-opacity:1"
         id="stop9950" />
      <stop
         offset="0.91404903"
         style="stop-color:#828282;stop-opacity:1"
         id="stop9952" />
      <stop
         offset="1"
         style="stop-color:#6e6e6e;stop-opacity:1"
         id="stop9954" />
    </linearGradient>
    <linearGradient
       id="linearGradient6672">
      <stop
         offset="0"
         style="stop-color:black;stop-opacity:1"
         id="stop6674" />
      <stop
         offset="1"
         style="stop-color:black;stop-opacity:0"
         id="stop6676" />
    </linearGradient>
    <inkscape:perspective
       id="perspective3548"
       inkscape:persp3d-origin="32 : 21.333333 : 1"
       inkscape:vp_z="64 : 32 : 1"
       inkscape:vp_y="0 : 1000 : 0"
       inkscape:vp_x="0 : 32 : 1"
       sodipodi:type="inkscape:persp3d" />
    <inkscape:perspective
       id="perspective2958"
       inkscape:persp3d-origin="0.5 : 0.33333333 : 1"
       inkscape:vp_z="1 : 0.5 : 1"
       inkscape:vp_y="0 : 1000 : 0"
       inkscape:vp_x="0 : 0.5 : 1"
       sodipodi:type="inkscape:persp3d" />
    <filter
       id="filter3132"
       inkscape:label="HSL Bumps"
       inkscape:menu="Bumps"
       inkscape:menu-tooltip="Highly flexible bump combining diffuse and specular lightings"
       color-interpolation-filters="sRGB">
      <feColorMatrix
         id="feColorMatrix3134"
         result="fbSourceGraphicAlpha"
         in="SourceGraphic"
         values="1 0 0 -1 0 1 0 1 -1 0 1 0 0 -1 0 -0.8 -1 0 3.7 -2.4 " />
      <feGaussianBlur
         id="feGaussianBlur3136"
         stdDeviation="0.5"
         in="fbSourceGraphicAlpha"
         result="result0" />
      <feSpecularLighting
         id="feSpecularLighting3138"
         result="result8"
         specularConstant="0.75"
         specularExponent="6"
         in="result0"
         surfaceScale="7">
        <feDistantLight
           id="feDistantLight3140"
           azimuth="235"
           elevation="15" />
      </feSpecularLighting>
      <feDiffuseLighting
         id="feDiffuseLighting3142"
         surfaceScale="20"
         diffuseConstant="0.2"
         result="result6"
         lighting-color="rgb(255,255,255)"
         in="result0">
        <feDistantLight
           id="feDistantLight3144"
           azimuth="235"
           elevation="25" />
      </feDiffuseLighting>
      <feBlend
         id="feBlend3146"
         in2="SourceGraphic"
         result="result7"
         mode="screen" />
      <feComposite
         id="feComposite3148"
         in2="result7"
         operator="arithmetic"
         k2="1"
         k3="1"
         in="result8"
         result="result9" />
      <feComposite
         id="feComposite3150"
         in2="SourceGraphic"
         operator="in"
         result="result2"
         in="result9" />
    </filter>
    <linearGradient
       inkscape:collect="always"
       xlink:href="#linearGradient3936"
       id="linearGradient3942"
       x1="-143.92819"
       y1="-27.938559"
       x2="-94.353186"
       y2="-27.938559"
       gradientUnits="userSpaceOnUse" />
  </defs>
  <g
     transform="matrix(1.3407707,0,0,1.33,-0.37331382,-2.5100021)"
     id="layer1">
    <path
       d="m 4.2173042,9.112412 c -0.690271,0.00767 -1.2267276,0.49252 -1.2267276,1.150374 0,5.514455 0.032088,9.739577 0,14.750431 1.4354706,0 42.4350234,-3.710639 42.4350234,-5.303171 l 0,-6.451519 c 0,-0.657853 -0.479808,-1.157925 -1.170083,-1.150254 l -20.255519,0 c -2.047483,0 -3.498891,-3.0067677 -5,-3.0067677 L 4.2173042,9.112412 z"
       id="path3468"
       style="fill:url(#linearGradient2786);fill-opacity:1;stroke:url(#radialGradient2788);stroke-width:0.74885362;stroke-linecap:round;stroke-linejoin:round;stroke-miterlimit:4;stroke-opacity:1;stroke-dasharray:none;display:inline" />
    <g
       transform="matrix(0.9583333,0,0,0.6666667,1.0000008,15.75188)"
       id="g7591"
       style="opacity:0.4">
      <rect
         width="40.700279"
         height="9"
         x="4"
         y="39"
         id="rect4173"
         style="fill:url(#linearGradient7596-975);fill-opacity:1;fill-rule:nonzero;stroke:none;stroke-width:1;marker:none;visibility:visible;display:inline;overflow:visible" />
      <path
         d="m 44.700217,39.00031 c 0,0 0,8.999504 0,8.999504 1.654593,0.01694 4.000001,-2.016333 4,-4.500331 0,-2.483999 -1.846402,-4.499173 -4,-4.499173 z"
         id="path5058"
         style="fill:url(#radialGradient7598-526);fill-opacity:1;fill-rule:nonzero;stroke:none;stroke-width:1;marker:none;visibility:visible;display:inline;overflow:visible" />
      <path
         d="m 4,39.00031 c 0,0 0,8.999504 0,8.999504 C 2.3454068,48.016755 0,45.983481 0,43.499483 0,41.015484 1.8464008,39.00031 4,39.00031 z"
         id="path5018"
         style="fill:url(#radialGradient7600-312);fill-opacity:1;fill-rule:nonzero;stroke:none;stroke-width:1;marker:none;visibility:visible;display:inline;overflow:visible" />
    </g>
    <path
       d="m 2.1623791,17.276868 c -1.0727303,0.123364 -0.6488256,1.398384 -0.7343545,2.115364 0.3925406,8.447538 0.9379939,16.724805 1.3281174,25.1724 0.3418434,0.963122 1.5944695,0.469906 2.3881688,0.592169 13.1938302,0 26.3876622,0 39.5814942,0 1.089403,-0.106367 0.636474,-1.403933 0.789717,-2.146531 0.392548,-8.447538 0.938293,-16.724805 1.328412,-25.1724 -0.251176,-0.951748 -1.668879,-0.422885 -2.412509,-0.561002 -14.089679,0 -28.179362,0 -42.2690459,0 z"
       id="path3388"
       style="fill:url(#radialGradient2777);fill-opacity:1;stroke:url(#linearGradient2779);stroke-width:0.74786413;stroke-linecap:round;stroke-linejoin:round;stroke-miterlimit:4;stroke-opacity:1;stroke-dasharray:none;stroke-dashoffset:0" />
    <path
       d="m 2.0582428,16.817026 43.8964752,4.03e-4 c 0.63416,0 1.045155,0.444611 1.045155,0.997367 l -1.244236,26.939331 c 0,0.552755 -0.510532,0.997753 -1.14469,0.997753 l -41.2089348,0 c -0.6341599,0 -1.1446927,-0.444998 -1.1446927,-0.997753 L 1.0130886,17.81478 c 0,-0.552757 0.4109943,-0.997754 1.0451542,-0.997754 z"
       id="path6127"
       style="opacity:0.4;fill:url(#linearGradient2774);fill-opacity:1;stroke:none" />
    <path
       d="m 46.276537,18.101835 c -13.53125,0 -30.46875,0 -44.0000002,0 0.2394145,7.845535 0.7708333,16.354167 1.15625,24.53125"
       id="path2435"
       style="fill:none;stroke:url(#radialGradient2771);stroke-width:0.74885362;stroke-linecap:round;stroke-linejoin:round;stroke-miterlimit:4;stroke-opacity:1;stroke-dasharray:none" />
    <path
       d="m 45.75,16.902271 c -14.54959,0.07335 -29.104584,-0.02115 -43.65625,0 -1.80676016,0.411117 -0.8344067,2.46661 -0.9724264,3.771525 0.2220295,4.163347 0.3230667,8.344939 0.6204615,12.496882 C 16.742298,30.80788 31.66833,28.563424 46.40625,26.121021 47.187241,23.534443 47.193628,20.450427 47.063607,17.691797 46.834471,17.187235 46.276599,16.890953 45.75,16.902271 z"
       id="path3455"
       style="fill:url(#linearGradient2768);fill-opacity:1;stroke:none" />
    <rect
       width="14.170957"
       height="1.5948954"
       rx="1"
       ry="0.74911523"
       x="4.7534704"
       y="10.909776"
       id="rect3562"
       style="fill:#edbd74;fill-opacity:1;fill-rule:nonzero;stroke:none;stroke-width:1;marker:none;visibility:visible;display:block;overflow:visible;enable-background:accumulate" />
  </g>
  <text
     xml:space="preserve"
     style="font-size:56px;font-style:normal;font-variant:normal;font-weight:normal;font-stretch:normal;text-align:start;line-height:125%;writing-mode:lr-tb;text-anchor:start;fill:#000000;fill-opacity:1;stroke:none;stroke-opacity:1;filter:url(#filter3132);font-family:Rachana;-inkscape-font-specification:Rachana"
     x="7.5611882"
     y="52.11813"
     id="text2926"
     sodipodi:linespacing="125%"
     transform="matrix(0.61558318,0,0,0.61558318,5.0492942,20.984092)"><tspan
       sodipodi:role="line"
       id="tspan2928"
       x="7.5611882"
       y="52.11813"
       style="font-size:56px;font-style:normal;font-variant:normal;font-weight:normal;font-stretch:normal;text-align:start;line-height:125%;writing-mode:lr-tb;text-anchor:start;fill:#000000;fill-opacity:1;stroke:none;stroke-opacity:1;font-family:Rachana;-inkscape-font-specification:Rachana">II</tspan></text>
  <path
     style="fill:#000000;stroke:none"
     d="m 47.803335,56.127184 c -0.310981,-0.24185 -0.986934,-0.371119 -1.96647,-0.376064 -0.820931,-0.0041 -1.780513,-0.153227 -2.132404,-0.331297 -0.351891,-0.17807 -1.29786,-0.395663 -2.102153,-0.483542 -1.547884,-0.169123 -3.236599,-0.91999 -5.882594,-2.615618 -1.742725,-1.116787 -1.777004,-1.1884 -1.777004,-3.712408 0,-1.360973 0.102492,-2.377395 0.248847,-2.467847 0.136865,-0.08459 0.749931,-0.22491 1.362369,-0.311826 1.071676,-0.152091 1.116199,-0.189893 1.184738,-1.005941 0.06854,-0.815992 0.003,-0.893971 -1.739953,-2.071495 -0.996144,-0.672972 -1.907807,-1.223585 -2.02592,-1.223585 -0.506496,0 -0.128542,-0.695652 1.088386,-2.003251 0.716725,-0.770127 1.303136,-1.49872 1.303136,-1.619097 0,-0.120377 0.31986,-0.622724 0.710801,-1.116326 0.390941,-0.493603 0.710801,-1.002337 0.710801,-1.13052 0,-0.128183 0.15074,-0.358163 0.334978,-0.511067 0.184238,-0.152904 0.558021,-0.725715 0.830631,-1.272913 0.272609,-0.547199 0.588862,-1.154837 0.702784,-1.350308 0.316934,-0.543803 0.977303,-2.671929 0.975984,-3.145236 -6.39e-4,-0.231274 0.25328,-0.517241 0.564275,-0.635481 0.310996,-0.11824 1.030683,-0.65845 1.599303,-1.200466 1.318611,-1.256916 2.952008,-2.363763 3.488253,-2.363763 0.229188,0 0.623668,-0.156539 0.876624,-0.347865 0.527454,-0.398946 4.254722,-0.503076 4.836553,-0.13512 0.414296,0.262005 0.312465,0.308974 -1.533429,0.707284 -2.802559,0.604741 -3.335171,0.838307 -4.474793,1.962334 -0.624786,0.616236 -1.091016,1.255957 -1.036065,1.421602 0.06105,0.184029 0.777262,0.369455 1.841366,0.476725 1.392761,0.140402 1.819613,0.104821 2.131795,-0.1777 0.56183,-0.508449 0.850493,-0.44117 1.396379,0.325457 0.533474,0.749195 2.009491,1.158822 2.552311,0.708321 0.182065,-0.151101 0.656637,-0.190773 1.157676,-0.09678 0.73369,0.13764 0.839531,0.101028 0.778546,-0.269312 -0.129399,-0.785792 0.181816,-0.928644 1.705719,-0.782945 0.98365,0.09405 1.562197,0.27265 1.760162,0.543382 0.359981,0.492302 0.834986,0.5275 0.834986,0.06187 0,-0.752248 0.483705,-0.568156 0.959939,0.365341 0.364776,0.715018 0.471534,1.257977 0.385986,1.963071 -0.15798,1.302115 -0.689716,3.075752 -1.053533,3.514123 -0.20467,0.246613 -0.298041,1.447945 -0.306421,3.942466 l -0.01205,3.587772 -0.670868,0 c -0.543391,0 -0.694785,0.123811 -0.796726,0.651568 -0.322213,1.668117 -0.646912,2.559379 -1.036092,2.843955 -0.324026,0.236932 -0.444298,0.72321 -0.512393,2.071666 -0.105331,2.085901 -0.320832,2.342204 -1.938341,2.305358 -1.145338,-0.02609 -1.183932,-0.0029 -2.567981,1.545512 -1.307757,1.463021 -1.594567,2.191694 -0.862665,2.191694 0.167586,0 0.364404,-0.155583 0.437374,-0.345738 0.07297,-0.190156 0.484203,-0.434203 0.913851,-0.542323 0.573647,-0.144359 0.89765,-0.432551 1.219595,-1.084799 l 0.438416,-0.888217 0.557239,0.601272 c 0.701573,0.75701 1.156432,0.759256 1.808829,0.0089 0.84935,-0.976837 1.264008,-0.692825 0.488806,0.334802 -1.050218,1.392192 -2.507196,2.677917 -3.54459,3.127961 -1.540281,0.66821 -3.591068,0.841603 -4.21499,0.356377 z m -1.597918,-2.693439 c 0.05344,-0.16275 -0.226017,-0.481386 -0.621014,-0.708084 -0.394997,-0.226696 -0.828038,-0.653295 -0.962313,-0.947995 -0.204407,-0.448627 -0.430034,-0.535821 -1.386497,-0.535821 -1.05323,0 -1.711003,0.291476 -1.711003,0.758188 0,0.10425 0.536697,0.189547 1.19266,0.189547 1.115328,0 1.224872,0.0546 1.689464,0.842022 0.392257,0.664826 0.623567,0.826873 1.099172,0.770034 0.331303,-0.03959 0.646091,-0.205144 0.699531,-0.367891 z m 4.181352,-2.47243 c 0.855762,-0.757633 1.107939,-1.381089 0.555938,-1.374438 -0.714112,0.0086 -2.198573,0.695903 -2.270436,1.051204 -0.08073,0.399164 0.345693,1.077631 0.677307,1.077631 0.101797,0 0.568533,-0.339479 1.037191,-0.754397 z m -2.150816,-1.792641 c 0.07205,-0.358362 0.198197,-0.918594 0.280326,-1.244963 0.126933,-0.504411 0.04026,-0.634561 -0.577977,-0.867919 -0.724197,-0.273355 -1.00706,-1.062558 -0.494398,-1.3794 0.406095,-0.250979 1.931445,0.159987 2.080464,0.560528 0.488011,1.311708 2.764346,3.025926 3.760297,2.83173 0.219106,-0.04272 0.560762,-0.523296 0.759234,-1.06794 0.416011,-1.141614 0.144357,-1.734474 -0.79475,-1.734474 -0.637111,0 -0.950534,-0.630184 -0.552158,-1.110198 0.199674,-0.240594 0.540407,-0.295615 1.17094,-0.189087 0.712898,0.120443 0.987099,0.05247 1.382236,-0.34267 0.418254,-0.418254 0.448132,-0.564637 0.197245,-0.966371 -0.415369,-0.665112 0.01995,-1.27076 1.02032,-1.419547 0.693318,-0.103119 0.824001,-0.235076 1.0087,-1.01852 0.164288,-0.696862 0.13078,-0.991049 -0.148425,-1.303135 -0.198337,-0.221696 -0.435503,-0.909529 -0.527038,-1.528519 -0.180138,-1.218174 -0.415517,-1.39277 -0.878405,-0.651568 -0.202631,0.324463 -0.5581,0.476244 -1.127445,0.481403 -0.457329,0.0041 -1.038471,0.164075 -1.291426,0.355401 -0.568376,0.429898 -0.867893,0.436845 -1.420264,0.03294 -0.677578,-0.495456 -0.112294,-1.343612 0.895499,-1.343612 0.426606,0 0.982611,-0.156539 1.235566,-0.347865 0.252955,-0.191326 0.693522,-0.351257 0.979036,-0.355401 0.561159,-0.0081 0.92268,-0.367739 0.581625,-0.578522 -0.115566,-0.07142 -0.815537,0.02783 -1.555493,0.220562 -2.92527,0.761936 -3.719296,0.177808 -1.067137,-0.785043 0.837038,-0.303882 1.707026,-0.652508 1.933307,-0.774724 0.568314,-0.306952 1.451738,-0.278218 1.788115,0.05816 0.383186,0.383185 0.611048,0.09417 0.445851,-0.565505 -0.125767,-0.502223 -0.241697,-0.537638 -1.505101,-0.459782 -0.752862,0.04639 -1.581033,0.23298 -1.840383,0.414634 -0.624745,0.437589 -1.124752,0.416502 -2.000071,-0.08435 -0.705346,-0.403597 -0.734092,-0.401164 -1.079875,0.09139 -0.195382,0.278316 -0.624213,0.573536 -0.952957,0.656045 -0.727249,0.182528 -1.642223,1.574085 -1.884316,2.865801 -0.09769,0.521254 -0.222832,1.954856 -0.278086,3.185782 -0.06419,1.429905 -0.227652,2.432167 -0.452702,2.775636 -0.193732,0.295673 -0.35224,0.706115 -0.35224,0.912094 0,0.725166 -1.100183,1.537635 -2.082146,1.537635 -0.505458,0 -1.000852,0.07997 -1.100875,0.177701 -0.100023,0.09774 -0.784169,0.1777 -1.520325,0.1777 -1.136745,0 -1.338465,0.06504 -1.338465,0.431537 0,0.295106 0.374536,0.585146 1.184669,0.91741 0.651568,0.267228 1.557839,0.651662 2.013937,0.854293 3.134298,1.392483 3.919549,1.503569 4.105091,0.580731 z M 38.228155,43.837665 c 0.16716,-0.423519 0.352147,-0.876655 0.411081,-1.006968 0.05893,-0.130314 -0.174023,0.02155 -0.517683,0.337468 -0.34366,0.315921 -0.624836,0.769057 -0.624836,1.006968 0,0.687287 0.399775,0.502839 0.731438,-0.337468 z m 6.376574,0.03949 c 0,-0.577418 -0.55366,-0.4958 -0.668941,0.09861 -0.04534,0.233798 0.07553,0.395 0.296167,0.395 0.219789,0 0.372774,-0.202577 0.372774,-0.493612 z m -2.132404,-1.1495 c 0,-0.382457 0.123252,-0.995523 0.273893,-1.362369 0.15064,-0.366845 0.337226,-1.146783 0.414634,-1.733194 0.113432,-0.859314 0.240382,-1.080394 0.654247,-1.139346 0.368101,-0.05243 0.60382,0.115292 0.83246,0.592334 0.369234,0.770381 1.00208,0.883751 1.069596,0.191612 0.28401,-2.911499 0.367499,-3.242359 0.979121,-3.88017 0.348255,-0.363167 0.899742,-1.097234 1.225525,-1.63126 0.399415,-0.654721 0.901007,-1.095583 1.54007,-1.353603 0.901798,-0.3641 0.925442,-0.399359 0.487816,-0.727447 -0.44072,-0.330407 -0.934417,-0.395803 -3.567955,-0.472617 -0.651568,-0.019 -1.802937,-0.211261 -2.558598,-0.427237 -0.755661,-0.215975 -1.635277,-0.392681 -1.954703,-0.392681 -0.497095,0 -0.580902,0.110948 -0.58166,0.770034 -4.98e-4,0.423519 -0.213728,1.119127 -0.473868,1.545796 -0.358108,0.587352 -0.472981,1.193863 -0.472981,2.497258 0,0.946824 -0.159931,2.335511 -0.355401,3.085972 -0.401712,1.542275 -0.450863,2.28909 -0.150656,2.28909 0.329866,0 1.034174,-2.091045 1.23032,-3.652746 0.331816,-2.641885 0.859145,-4.166067 1.441357,-4.166067 0.290706,0 0.004,4.923193 -0.409899,7.03879 -0.44876,2.293744 -0.44095,3.623228 0.02128,3.623228 0.235182,0 0.3554,-0.23522 0.3554,-0.695377 z m 14.867593,-5.998001 c -0.111807,-0.33542 -0.492818,-0.298548 -0.612078,0.05923 -0.04344,0.130313 0.09872,0.236933 0.315911,0.236933 0.21719,0 0.350465,-0.133275 0.296167,-0.296167 z m 0.927539,-3.914536 c 0.204874,-0.130341 0.189386,-0.293983 -0.06012,-0.635205 -0.249669,-0.341442 -0.404877,-0.390845 -0.603598,-0.192125 -0.147129,0.147128 -0.203387,0.434603 -0.125016,0.638833 0.156108,0.406809 0.366539,0.457099 0.788736,0.188497 z M 43.071672,28.721793 c 0.275722,-0.446127 -0.0726,-0.905852 -0.584853,-0.771896 -0.634861,0.16602 -0.658704,1.020176 -0.02848,1.020176 0.252937,0 0.528935,-0.111726 0.61333,-0.24828 z M 56.56867,50.529082 c -0.24221,-0.391903 0.09392,-1.467537 0.424585,-1.35868 0.426389,0.140369 0.480154,1.004056 0.08302,1.333645 -0.248657,0.206369 -0.391192,0.213399 -0.507607,0.02503 z m -0.337067,-2.189676 c -0.248074,-0.646549 0.08908,-1.114003 0.504134,-0.698954 0.156376,0.156376 0.476237,0.28432 0.710801,0.28432 0.525981,0 0.565016,0.606942 0.0517,0.803919 -0.686847,0.263567 -1.060167,0.148832 -1.266636,-0.389285 z m 1.325505,-19.764223 c -0.08688,-0.08687 -0.157957,-0.268129 -0.157957,-0.402787 0,-0.148463 0.110357,-0.134474 0.280371,0.03554 0.154206,0.154205 0.225286,0.335459 0.157957,0.402788 -0.06733,0.06733 -0.193497,0.05134 -0.280371,-0.03554 z m -0.750291,-0.789779 c -0.08054,-0.130313 -0.03352,-0.236933 0.104483,-0.236933 0.138004,0 0.250918,0.10662 0.250918,0.236933 0,0.130314 -0.04702,0.236934 -0.104483,0.236934 -0.05747,0 -0.170379,-0.10662 -0.250918,-0.236934 z m -4.560975,-2.049659 c -0.550831,-0.227337 -0.30061,-0.588598 0.355401,-0.513116 0.358362,0.04123 0.651568,0.180131 0.651568,0.30866 0,0.268503 -0.570915,0.384422 -1.006969,0.204456 z"
     id="path5410" />
  <path
     id="path2957"
     d="m 47.803335,56.127184 c -0.310981,-0.24185 -0.986934,-0.371119 -1.96647,-0.376064 -0.820931,-0.0041 -1.780513,-0.153227 -2.132404,-0.331297 -0.351891,-0.17807 -1.29786,-0.395663 -2.102153,-0.483542 -1.547884,-0.169123 -3.236599,-0.91999 -5.882594,-2.615618 -1.742725,-1.116787 -1.777004,-1.1884 -1.777004,-3.712408 0,-1.360973 0.102492,-2.377395 0.248847,-2.467847 0.136865,-0.08459 0.749931,-0.22491 1.362369,-0.311826 1.071676,-0.152091 1.116199,-0.189893 1.184738,-1.005941 0.06854,-0.815992 0.003,-0.893971 -1.739953,-2.071495 -0.996144,-0.672972 -1.907807,-1.223585 -2.02592,-1.223585 -0.506496,0 -0.128542,-0.695652 1.088386,-2.003251 0.716725,-0.770127 1.303136,-1.49872 1.303136,-1.619097 0,-0.120377 0.31986,-0.622724 0.710801,-1.116326 0.390941,-0.493603 0.710801,-1.002337 0.710801,-1.13052 0,-0.128183 0.15074,-0.358163 0.334978,-0.511067 0.184238,-0.152904 0.558021,-0.725715 0.830631,-1.272913 0.272609,-0.547199 0.588862,-1.154837 0.702784,-1.350308 0.316934,-0.543803 0.977303,-2.671929 0.975984,-3.145236 -6.39e-4,-0.231274 0.25328,-0.517241 0.564275,-0.635481 0.310996,-0.11824 1.030683,-0.65845 1.599303,-1.200466 1.318611,-1.256916 2.952008,-2.363763 3.488253,-2.363763 0.229188,0 0.623668,-0.156539 0.876624,-0.347865 0.527454,-0.398946 4.254722,-0.503076 4.836553,-0.13512 0.414296,0.262005 0.312465,0.308974 -1.533429,0.707284 -2.802559,0.604741 -3.335171,0.838307 -4.474793,1.962334 -0.624786,0.616236 -1.091016,1.255957 -1.036065,1.421602 0.06105,0.184029 0.777262,0.369455 1.841366,0.476725 1.392761,0.140402 1.819613,0.104821 2.131795,-0.1777 0.56183,-0.508449 0.850493,-0.44117 1.396379,0.325457 0.533474,0.749195 2.009491,1.158822 2.552311,0.708321 0.182065,-0.151101 0.656637,-0.190773 1.157676,-0.09678 0.73369,0.13764 0.839531,0.101028 0.778546,-0.269312 -0.129399,-0.785792 0.181816,-0.928644 1.705719,-0.782945 0.98365,0.09405 1.562197,0.27265 1.760162,0.543382 0.359981,0.492302 0.834986,0.5275 0.834986,0.06187 0,-0.752248 0.483705,-0.568156 0.959939,0.365341 0.364776,0.715018 0.471534,1.257977 0.385986,1.963071 -0.15798,1.302115 -0.689716,3.075752 -1.053533,3.514123 -0.20467,0.246613 -0.298041,1.447945 -0.306421,3.942466 l -0.01205,3.587772 -0.670868,0 c -0.543391,0 -0.694785,0.123811 -0.796726,0.651568 -0.322213,1.668117 -0.646912,2.559379 -1.036092,2.843955 -0.324026,0.236932 -0.444298,0.72321 -0.512393,2.071666 -0.105331,2.085901 -0.320832,2.342204 -1.938341,2.305358 -1.145338,-0.02609 -1.183932,-0.0029 -2.567981,1.545512 -1.307757,1.463021 -1.594567,2.191694 -0.862665,2.191694 0.167586,0 0.364404,-0.155583 0.437374,-0.345738 0.07297,-0.190156 0.484203,-0.434203 0.913851,-0.542323 0.573647,-0.144359 0.89765,-0.432551 1.219595,-1.084799 l 0.438416,-0.888217 0.557239,0.601272 c 0.701573,0.75701 1.156432,0.759256 1.808829,0.0089 0.84935,-0.976837 1.264008,-0.692825 0.488806,0.334802 -1.050218,1.392192 -2.507196,2.677917 -3.54459,3.127961 -1.540281,0.66821 -3.591068,0.841603 -4.21499,0.356377 l -3e-6,3.7e-5 z m 8.765333,-5.598107 c -0.24221,-0.391903 0.09392,-1.467532 0.424587,-1.358675 0.426389,0.140369 0.480154,1.004056 0.08302,1.333645 -0.248657,0.206369 -0.391192,0.213399 -0.507607,0.02503 z m -0.337066,-2.189671 c -0.248074,-0.646549 0.08908,-1.114003 0.504135,-0.698954 0.156376,0.156376 0.476237,0.28432 0.710801,0.28432 0.525981,0 0.565016,0.606942 0.0517,0.803919 -0.686847,0.263567 -1.060167,0.148832 -1.266636,-0.389285 z m 1.325506,-19.764222 c -0.08688,-0.08687 -0.157957,-0.26813 -0.157957,-0.402788 0,-0.148463 0.110357,-0.134474 0.280371,0.03554 0.154206,0.154205 0.225286,0.335459 0.157957,0.402788 -0.06733,0.06733 -0.193497,0.05134 -0.280371,-0.03554 z m -0.750291,-0.78978 c -0.08054,-0.130313 -0.03352,-0.236933 0.104483,-0.236933 0.138004,0 0.250918,0.10662 0.250918,0.236933 0,0.130314 -0.04702,0.236934 -0.104483,0.236934 -0.05747,0 -0.170379,-0.10662 -0.250918,-0.236934 z m -4.560975,-2.049659 c -0.550831,-0.227337 -0.30061,-0.588598 0.355401,-0.513116 0.358362,0.04123 0.651568,0.180131 0.651568,0.30866 0,0.268503 -0.570915,0.384422 -1.006969,0.204456 z"
     style="fill:none;stroke:#ffffff;stroke-opacity:1;stroke-width:0.5;stroke-miterlimit:4;stroke-dasharray:none"
     sodipodi:nodetypes="csssssssssssssssssssssssssssssssssssssscccsssssssscccssscccssccsssccsssccsssccssc" />
</svg>
